<?xml version="1.0" encoding="UTF-8" ?>
<!DOCTYPE svg PUBLIC "-//W3C//DTD SVG 1.1//EN" "http://www.w3.org/Graphics/SVG/1.1/DTD/svg11.dtd">
<svg width="1220pt" height="1154pt" viewBox="0 0 1220 1154" version="1.1" xmlns="http://www.w3.org/2000/svg">
<g id="#ffffffff">
<path fill="#ffffff" opacity="1.00" d=" M 807.44 464.73 C 829.07 461.91 851.28 464.69 871.72 472.21 C 878.86 474.89 885.85 478.34 891.70 483.29 C 897.01 487.88 896.40 495.64 896.07 501.98 C 895.70 505.27 895.17 510.23 890.98 510.63 C 886.50 509.94 883.17 506.70 879.36 504.58 C 867.25 497.61 853.94 492.51 840.10 490.40 C 821.94 488.24 802.51 489.19 786.19 498.25 C 769.72 506.66 757.64 522.05 750.91 539.04 C 741.11 565.99 741.24 596.57 751.71 623.30 C 758.42 638.72 769.60 652.68 784.66 660.57 C 802.38 670.07 823.49 671.81 843.01 667.97 C 850.84 666.17 858.66 663.81 865.69 659.83 C 865.68 637.88 865.63 615.92 865.70 593.97 C 848.19 593.70 830.66 594.08 813.15 593.79 C 809.10 593.74 807.89 589.34 807.49 586.07 C 807.13 581.39 806.87 576.36 808.84 571.99 C 809.85 569.60 812.68 569.20 814.98 569.23 C 837.68 569.25 860.38 569.24 883.08 569.23 C 886.44 569.25 890.17 569.75 892.63 572.29 C 895.18 574.80 895.73 578.58 895.73 582.00 C 895.68 610.99 895.77 639.97 895.68 668.95 C 895.66 673.80 893.22 678.61 888.69 680.68 C 863.65 693.27 834.92 698.10 807.09 695.28 C 788.93 693.40 770.95 687.67 755.89 677.17 C 741.38 667.28 730.32 652.86 722.87 637.09 C 715.58 619.74 711.95 600.85 712.16 582.03 C 711.90 562.40 715.88 542.72 723.67 524.71 C 731.55 508.36 743.17 493.49 758.24 483.18 C 772.76 473.03 789.89 466.87 807.44 464.73 Z" />
<path fill="#ffffff" opacity="1.00" d=" M 637.77 471.49 C 638.23 467.72 642.79 466.89 645.90 466.58 C 651.59 466.35 657.58 465.74 663.04 467.71 C 665.23 468.44 666.49 470.67 666.24 472.93 C 666.18 542.31 666.22 611.69 666.17 681.07 C 666.21 685.21 664.23 689.46 660.59 691.60 C 657.15 693.77 652.90 693.43 649.02 693.54 C 643.08 693.38 636.63 693.92 631.42 690.52 C 625.78 686.75 622.24 680.76 618.84 675.06 C 600.17 641.38 581.50 607.71 562.83 574.04 C 549.29 549.43 535.15 525.12 523.11 499.72 C 524.30 562.14 523.48 624.58 523.75 687.01 C 524.01 689.29 523.04 691.89 520.62 692.53 C 514.16 694.51 507.15 694.28 500.54 693.21 C 497.93 692.86 494.99 691.11 495.28 688.12 C 495.22 618.74 495.27 549.36 495.24 479.99 C 495.17 476.13 496.09 471.79 499.48 469.49 C 502.99 466.68 507.68 466.67 511.96 466.77 C 518.85 466.94 525.99 466.16 532.63 468.46 C 538.85 470.87 542.38 476.94 545.63 482.40 C 554.80 498.91 563.91 515.47 573.06 532.00 C 591.32 565.37 610.28 598.39 627.72 632.21 C 631.25 638.79 634.45 645.55 638.16 652.03 C 637.39 600.36 637.85 548.67 637.70 496.99 C 637.76 488.49 637.59 479.98 637.77 471.49 Z" />
<path fill="#ffffff" opacity="1.00" d=" M 323.21 470.25 C 325.75 467.68 329.45 466.68 333.00 466.77 C 368.32 466.84 403.64 466.70 438.96 466.84 C 442.56 466.67 443.99 470.53 444.43 473.45 C 445.14 478.66 445.38 484.32 443.17 489.22 C 442.11 491.59 439.24 491.82 436.99 491.82 C 408.17 491.78 379.35 491.81 350.53 491.81 C 350.44 515.42 350.64 539.03 350.41 562.64 C 373.95 562.94 397.51 562.70 421.06 562.77 C 424.33 562.87 428.75 561.93 430.63 565.43 C 432.86 569.90 432.36 575.19 432.06 580.03 C 431.93 583.37 429.93 587.40 426.01 587.01 C 400.85 587.11 375.68 587.02 350.52 587.05 C 350.48 614.03 350.50 641.02 350.50 668.00 C 380.00 668.02 409.51 667.99 439.01 668.02 C 442.55 667.61 445.39 670.50 445.78 673.88 C 446.42 679.12 446.90 684.83 444.81 689.82 C 443.75 692.52 440.64 693.14 438.06 693.02 C 403.03 692.97 368.01 693.04 332.99 692.98 C 328.88 693.02 324.31 691.68 322.04 688.00 C 320.15 684.67 320.47 680.69 320.45 677.01 C 320.47 611.00 320.44 544.98 320.44 478.97 C 320.47 475.91 320.93 472.51 323.21 470.25 Z" />
</g>
<g id="#4573c4ff">
<path fill="#4573c4" opacity="1.00" d=" M 583.26 77.35 C 666.78 74.87 750.88 91.43 827.00 125.96 C 862.37 141.88 895.90 161.78 926.98 184.97 C 951.24 202.69 973.60 222.90 994.21 244.75 C 1027.41 279.40 1055.19 319.13 1077.21 361.74 C 1096.14 399.12 1110.55 438.85 1119.28 479.85 C 1136.56 560.01 1132.91 644.59 1108.63 722.92 C 1096.03 763.27 1078.42 802.09 1055.80 837.82 C 1036.93 868.11 1014.78 896.32 989.82 921.82 C 968.23 944.38 944.45 964.82 918.96 982.86 C 854.72 1029.32 779.90 1060.69 702.06 1075.41 C 608.13 1092.71 509.66 1086.58 419.12 1055.78 C 369.89 1039.14 322.95 1015.51 280.58 985.37 C 259.29 970.36 238.85 954.07 220.22 935.84 C 193.78 910.32 169.53 882.40 149.23 851.71 C 106.64 788.86 78.94 715.91 69.68 640.52 C 63.91 594.26 64.90 547.16 72.65 501.19 C 84.08 432.54 110.88 366.58 150.04 309.09 C 170.02 279.07 193.80 251.73 219.68 226.68 C 244.15 202.68 271.67 182.01 300.29 163.25 C 384.32 109.30 483.47 79.40 583.26 77.35 M 807.44 464.73 C 789.89 466.87 772.76 473.03 758.24 483.18 C 743.17 493.49 731.55 508.36 723.67 524.71 C 715.88 542.72 711.90 562.40 712.16 582.03 C 711.95 600.85 715.58 619.74 722.87 637.09 C 730.32 652.86 741.38 667.28 755.89 677.17 C 770.95 687.67 788.93 693.40 807.09 695.28 C 834.92 698.10 863.65 693.27 888.69 680.68 C 893.22 678.61 895.66 673.80 895.68 668.95 C 895.77 639.97 895.68 610.99 895.73 582.00 C 895.73 578.58 895.18 574.80 892.63 572.29 C 890.17 569.75 886.44 569.25 883.08 569.23 C 860.38 569.24 837.68 569.25 814.98 569.23 C 812.68 569.20 809.85 569.60 808.84 571.99 C 806.87 576.36 807.13 581.39 807.49 586.07 C 807.89 589.34 809.10 593.74 813.15 593.79 C 830.66 594.08 848.19 593.70 865.70 593.97 C 865.63 615.92 865.68 637.88 865.69 659.83 C 858.66 663.81 850.84 666.17 843.01 667.97 C 823.49 671.81 802.38 670.07 784.66 660.57 C 769.60 652.68 758.42 638.72 751.71 623.30 C 741.24 596.57 741.11 565.99 750.91 539.04 C 757.64 522.05 769.72 506.66 786.19 498.25 C 802.51 489.19 821.94 488.24 840.10 490.40 C 853.94 492.51 867.25 497.61 879.36 504.58 C 883.17 506.70 886.50 509.94 890.98 510.63 C 895.17 510.23 895.70 505.27 896.07 501.98 C 896.40 495.64 897.01 487.88 891.70 483.29 C 885.85 478.34 878.86 474.89 871.72 472.21 C 851.28 464.69 829.07 461.91 807.44 464.73 M 637.77 471.49 C 637.59 479.98 637.76 488.49 637.70 496.99 C 637.85 548.67 637.39 600.36 638.16 652.03 C 634.45 645.55 631.25 638.79 627.72 632.21 C 610.28 598.39 591.32 565.37 573.06 532.00 C 563.91 515.47 554.80 498.91 545.63 482.40 C 542.38 476.94 538.85 470.87 532.63 468.46 C 525.99 466.16 518.85 466.94 511.96 466.77 C 507.68 466.67 502.99 466.68 499.48 469.49 C 496.09 471.79 495.17 476.13 495.24 479.99 C 495.27 549.36 495.22 618.74 495.28 688.12 C 494.99 691.11 497.93 692.86 500.54 693.21 C 507.15 694.28 514.16 694.51 520.62 692.53 C 523.04 691.89 524.01 689.29 523.75 687.01 C 523.48 624.58 524.30 562.14 523.11 499.72 C 535.15 525.12 549.29 549.43 562.83 574.04 C 581.50 607.71 600.17 641.38 618.84 675.06 C 622.24 680.76 625.78 686.75 631.42 690.52 C 636.63 693.92 643.08 693.38 649.02 693.54 C 652.90 693.43 657.15 693.77 660.59 691.60 C 664.23 689.46 666.21 685.21 666.17 681.07 C 666.22 611.69 666.18 542.31 666.24 472.93 C 666.49 470.67 665.23 468.44 663.04 467.71 C 657.58 465.74 651.59 466.35 645.90 466.58 C 642.79 466.89 638.23 467.72 637.77 471.49 M 323.21 470.25 C 320.93 472.51 320.47 475.91 320.44 478.97 C 320.44 544.98 320.47 611.00 320.45 677.01 C 320.47 680.69 320.15 684.67 322.04 688.00 C 324.31 691.68 328.88 693.02 332.99 692.98 C 368.01 693.04 403.03 692.97 438.06 693.02 C 440.64 693.14 443.75 692.52 444.81 689.82 C 446.90 684.83 446.42 679.12 445.78 673.88 C 445.39 670.50 442.55 667.61 439.01 668.02 C 409.51 667.99 380.00 668.02 350.50 668.00 C 350.50 641.02 350.48 614.03 350.52 587.05 C 375.68 587.02 400.85 587.11 426.01 587.01 C 429.93 587.40 431.93 583.37 432.06 580.03 C 432.36 575.19 432.86 569.90 430.63 565.43 C 428.75 561.93 424.33 562.87 421.06 562.77 C 397.51 562.70 373.95 562.94 350.41 562.64 C 350.64 539.03 350.44 515.42 350.53 491.81 C 379.35 491.81 408.17 491.78 436.99 491.82 C 439.24 491.82 442.11 491.59 443.17 489.22 C 445.38 484.32 445.14 478.66 444.43 473.45 C 443.99 470.53 442.56 466.67 438.96 466.84 C 403.64 466.70 368.32 466.84 333.00 466.77 C 329.45 466.68 325.75 467.68 323.21 470.25 Z" />
</g>
</svg>
