<?xml version="1.0" encoding="UTF-8" ?>
<!DOCTYPE svg PUBLIC "-//W3C//DTD SVG 1.1//EN" "http://www.w3.org/Graphics/SVG/1.1/DTD/svg11.dtd">
<svg width="1290pt" height="1214pt" viewBox="0 0 1290 1214" version="1.1" xmlns="http://www.w3.org/2000/svg">
<g id="#ffffffff">
<path fill="#ffffff" opacity="1.00" d=" M 616.46 500.61 C 635.08 497.85 654.54 500.44 671.61 508.44 C 675.02 510.16 678.61 511.88 681.17 514.81 C 683.36 517.30 683.45 520.83 683.67 523.97 C 683.78 528.30 683.88 532.72 682.79 536.96 C 682.38 538.76 681.04 540.62 678.97 540.50 C 675.03 539.90 671.86 537.33 668.43 535.53 C 657.30 529.25 644.88 524.48 631.93 524.57 C 620.95 524.23 608.95 526.93 601.19 535.21 C 594.24 542.51 592.26 553.50 594.22 563.16 C 596.31 572.80 603.54 580.26 611.46 585.64 C 622.60 593.16 635.28 597.88 647.27 603.82 C 661.85 610.87 676.97 618.79 686.46 632.43 C 696.04 645.41 698.17 662.52 695.50 678.11 C 693.42 689.14 688.94 699.96 681.16 708.21 C 670.97 720.02 656.30 727.19 641.16 730.15 C 619.52 734.37 596.60 732.30 576.26 723.70 C 571.11 721.45 565.93 718.96 561.71 715.19 C 557.34 711.08 557.31 704.56 557.37 699.01 C 557.65 695.38 557.46 691.05 560.28 688.31 C 562.96 686.79 566.03 688.18 568.40 689.66 C 583.18 699.20 600.19 706.38 618.03 706.50 C 629.99 707.02 642.57 704.54 652.24 697.16 C 667.08 685.66 669.85 660.99 656.71 647.20 C 646.25 635.95 631.47 630.62 617.95 624.12 C 602.32 616.78 585.91 608.97 575.04 595.03 C 566.78 585.00 562.68 571.89 562.90 558.96 C 562.71 543.72 568.08 527.93 579.55 517.52 C 586.00 510.57 594.91 506.80 603.65 503.63 C 607.80 502.17 612.14 501.39 616.46 500.61 Z" />
<path fill="#ffffff" opacity="1.00" d=" M 400.23 513.98 C 399.76 507.91 405.05 502.82 411.00 502.85 C 446.34 502.69 481.69 502.85 517.04 502.77 C 519.44 502.58 522.28 503.29 523.13 505.85 C 525.21 511.65 525.22 518.27 523.41 524.14 C 522.81 526.58 520.35 527.84 517.99 527.77 C 488.73 527.94 459.47 527.59 430.22 527.95 C 430.35 551.56 430.22 575.16 430.27 598.77 C 455.49 598.81 480.72 598.70 505.95 598.82 C 509.66 598.72 511.51 602.67 511.76 605.87 C 512.15 610.52 512.53 615.47 510.83 619.93 C 509.97 622.32 507.32 623.20 504.98 623.05 C 480.07 623.09 455.15 622.99 430.24 623.10 C 430.26 650.06 430.25 677.02 430.23 703.98 C 459.48 704.04 488.74 703.99 517.99 704.00 C 520.32 703.94 523.12 704.35 524.31 706.66 C 526.65 711.04 526.04 716.29 525.82 721.08 C 525.70 724.83 523.46 729.38 519.07 728.96 C 484.05 729.05 449.02 728.97 414.00 729.00 C 410.22 729.06 406.05 728.52 403.23 725.75 C 400.54 723.32 400.20 719.42 400.19 716.02 C 400.24 648.67 400.14 581.32 400.23 513.98 Z" />
<path fill="#ffffff" opacity="1.00" d=" M 741.21 508.04 C 743.66 504.09 748.58 502.58 753.02 502.77 C 770.01 502.86 787.00 502.65 803.99 502.88 C 821.13 503.42 839.26 506.22 853.35 516.73 C 865.63 525.00 873.93 538.53 876.83 552.96 C 879.70 566.82 878.92 581.46 874.53 594.93 C 869.21 612.60 855.55 627.34 838.75 634.78 C 817.16 644.98 792.72 642.73 769.56 643.00 C 769.52 670.02 769.58 697.05 769.52 724.07 C 769.85 727.43 766.21 728.93 763.46 729.29 C 756.77 730.28 749.79 730.40 743.20 728.72 C 741.02 728.24 739.24 726.35 739.52 724.04 C 739.48 656.01 739.52 587.99 739.47 519.96 C 739.51 515.96 739.09 511.64 741.21 508.04 M 769.57 527.64 C 769.56 557.87 769.54 588.11 769.56 618.35 C 781.38 618.22 793.22 618.70 805.03 617.95 C 814.47 617.31 823.63 613.88 831.19 608.20 C 841.58 599.70 846.66 586.20 846.82 573.01 C 847.46 560.56 843.45 547.44 834.29 538.71 C 827.95 532.90 819.59 529.56 811.11 528.61 C 797.32 526.96 783.41 527.85 769.57 527.64 Z" />
</g>
<g id="#4573c4ff">
<path fill="#4573c4" opacity="1.00" d=" M 610.27 113.33 C 728.13 109.89 847.17 145.02 943.13 213.84 C 966.14 230.11 988.00 248.07 1007.84 268.10 C 1026.13 286.28 1043.34 305.58 1058.71 326.30 C 1083.10 359.43 1104.05 395.22 1119.56 433.38 C 1150.39 507.45 1161.91 589.35 1153.19 669.09 C 1145.12 744.23 1118.83 817.28 1077.51 880.54 C 1058.41 910.34 1035.87 937.85 1010.86 962.88 C 989.83 984.41 966.59 1003.70 941.97 1020.98 C 884.78 1061.72 819.35 1090.73 750.96 1106.52 C 702.25 1117.99 651.96 1122.34 601.99 1120.48 C 517.07 1117.49 432.84 1094.60 358.32 1053.73 C 334.32 1040.78 311.61 1025.56 289.85 1009.16 C 270.38 994.54 252.16 978.31 235.16 960.88 C 212.83 938.26 192.41 913.71 174.88 887.18 C 132.67 824.72 105.15 752.31 95.80 677.47 C 90.06 632.19 90.79 586.08 98.03 541.00 C 105.33 494.34 119.98 448.94 140.47 406.42 C 154.15 378.25 170.74 351.54 189.27 326.32 C 209.73 298.81 233.30 273.71 258.57 250.58 C 310.93 204.09 372.29 167.71 438.39 144.52 C 493.55 125.11 551.80 114.41 610.27 113.33 M 616.46 500.61 C 612.14 501.39 607.80 502.17 603.65 503.63 C 594.91 506.80 586.00 510.57 579.55 517.52 C 568.08 527.93 562.71 543.72 562.90 558.96 C 562.68 571.89 566.78 585.00 575.04 595.03 C 585.91 608.97 602.32 616.78 617.95 624.12 C 631.47 630.62 646.25 635.95 656.71 647.20 C 669.85 660.99 667.08 685.66 652.24 697.16 C 642.57 704.54 629.99 707.02 618.03 706.50 C 600.19 706.38 583.18 699.20 568.40 689.66 C 566.03 688.18 562.96 686.79 560.28 688.31 C 557.46 691.05 557.65 695.38 557.37 699.01 C 557.31 704.56 557.34 711.08 561.71 715.19 C 565.93 718.96 571.11 721.45 576.26 723.70 C 596.60 732.30 619.52 734.37 641.16 730.15 C 656.30 727.19 670.97 720.02 681.16 708.21 C 688.94 699.96 693.42 689.14 695.50 678.11 C 698.17 662.52 696.04 645.41 686.46 632.43 C 676.97 618.79 661.85 610.87 647.27 603.82 C 635.28 597.88 622.60 593.16 611.46 585.64 C 603.54 580.26 596.31 572.80 594.22 563.16 C 592.26 553.50 594.24 542.51 601.19 535.21 C 608.95 526.93 620.95 524.23 631.93 524.57 C 644.88 524.48 657.30 529.25 668.43 535.53 C 671.86 537.33 675.03 539.90 678.97 540.50 C 681.04 540.62 682.38 538.76 682.79 536.96 C 683.88 532.72 683.78 528.30 683.67 523.97 C 683.45 520.83 683.36 517.30 681.17 514.81 C 678.61 511.88 675.02 510.16 671.61 508.44 C 654.54 500.44 635.08 497.85 616.46 500.61 M 400.23 513.98 C 400.14 581.32 400.24 648.67 400.19 716.02 C 400.20 719.42 400.54 723.32 403.23 725.75 C 406.05 728.52 410.22 729.06 414.00 729.00 C 449.02 728.97 484.05 729.05 519.07 728.96 C 523.46 729.38 525.70 724.83 525.82 721.08 C 526.04 716.29 526.65 711.04 524.31 706.66 C 523.12 704.35 520.32 703.94 517.99 704.00 C 488.74 703.99 459.48 704.04 430.23 703.98 C 430.25 677.02 430.26 650.06 430.24 623.10 C 455.15 622.99 480.07 623.09 504.98 623.05 C 507.32 623.20 509.97 622.32 510.83 619.93 C 512.53 615.47 512.15 610.52 511.76 605.87 C 511.51 602.67 509.66 598.72 505.95 598.82 C 480.72 598.70 455.49 598.81 430.27 598.77 C 430.22 575.16 430.35 551.56 430.22 527.95 C 459.47 527.59 488.73 527.94 517.99 527.77 C 520.35 527.84 522.81 526.58 523.41 524.14 C 525.22 518.27 525.21 511.65 523.13 505.85 C 522.28 503.29 519.44 502.58 517.04 502.77 C 481.69 502.85 446.34 502.69 411.00 502.85 C 405.05 502.82 399.76 507.91 400.23 513.98 M 741.21 508.04 C 739.09 511.64 739.51 515.96 739.47 519.96 C 739.52 587.99 739.48 656.01 739.52 724.04 C 739.24 726.35 741.02 728.24 743.20 728.72 C 749.79 730.40 756.77 730.28 763.46 729.29 C 766.21 728.93 769.85 727.43 769.52 724.07 C 769.58 697.05 769.52 670.02 769.56 643.00 C 792.72 642.73 817.16 644.98 838.75 634.78 C 855.55 627.34 869.21 612.60 874.53 594.93 C 878.92 581.46 879.70 566.82 876.83 552.96 C 873.93 538.53 865.63 525.00 853.35 516.73 C 839.26 506.22 821.13 503.42 803.99 502.88 C 787.00 502.65 770.01 502.86 753.02 502.77 C 748.58 502.58 743.66 504.09 741.21 508.04 Z" />
<path fill="#4573c4" opacity="1.00" d=" M 769.57 527.64 C 783.41 527.85 797.32 526.96 811.11 528.61 C 819.59 529.56 827.95 532.90 834.29 538.71 C 843.45 547.44 847.46 560.56 846.82 573.01 C 846.66 586.20 841.58 599.70 831.19 608.20 C 823.63 613.88 814.47 617.31 805.03 617.95 C 793.22 618.70 781.38 618.22 769.56 618.35 C 769.54 588.11 769.56 557.87 769.57 527.64 Z" />
</g>
</svg>
