<?xml version="1.0" standalone="no"?>
<!DOCTYPE svg PUBLIC "-//W3C//DTD SVG 20010904//EN"
 "http://www.w3.org/TR/2001/REC-SVG-20010904/DTD/svg10.dtd">
<svg version="1.0" xmlns="http://www.w3.org/2000/svg"
 width="900.000000pt" height="591.000000pt" viewBox="0 0 900.000000 591.000000"
 preserveAspectRatio="xMidYMid meet">
<metadata>
Created by potrace 1.10, written by Peter Selinger 2001-2011
</metadata>
<g transform="translate(0.000000,591.000000) scale(0.100000,-0.100000)"
fill="#ffffff" stroke="none">
<path d="M6946 5390 c-74 -77 -106 -117 -106 -134 0 -17 60 -84 231 -255 217
-217 233 -231 268 -231 30 0 44 8 80 45 24 25 49 45 55 45 7 0 29 -17 49 -38
40 -40 49 -84 22 -100 -13 -7 -15 -30 -13 -143 l3 -134 119 3 c99 3 124 7 147
23 36 25 39 25 82 -14 46 -40 49 -75 9 -109 -35 -30 -62 -68 -62 -89 0 -9 104
-121 231 -248 286 -286 262 -277 402 -138 99 98 117 122 117 157 0 14 -74 95
-229 251 -266 266 -261 263 -344 184 -27 -25 -51 -45 -55 -45 -5 0 -27 19 -50
43 -44 45 -47 61 -15 98 10 12 13 46 11 140 l-3 124 -121 3 c-116 3 -123 2
-150 -22 -32 -26 -28 -27 -89 22 -40 32 -36 67 15 121 25 26 40 51 40 67 0 18
-54 79 -228 254 -287 289 -260 281 -416 120z"/>
<path d="M1830 4410 c-48 -25 -94 -77 -114 -128 -14 -36 -16 -90 -16 -375 0
-182 4 -338 8 -345 6 -9 38 -12 123 -10 l114 3 3 294 c2 249 5 297 18 312 30
33 53 14 184 -146 233 -286 377 -453 404 -470 25 -16 48 -20 122 -20 82 0 94
3 132 28 23 15 54 46 69 69 l28 41 3 365 c2 267 0 368 -9 378 -8 10 -38 14
-115 14 -92 0 -104 -2 -114 -19 -6 -12 -10 -127 -10 -305 0 -275 -1 -285 -20
-291 -27 -9 -52 12 -140 118 -41 49 -87 104 -101 121 -15 17 -71 83 -125 146
-192 227 -211 240 -332 240 -55 -1 -87 -6 -112 -20z"/>
<path d="M4507 4409 c-57 -30 -96 -69 -118 -116 -18 -40 -19 -65 -17 -390 l3
-348 109 -3 c72 -2 113 1 122 9 12 10 14 59 14 276 -1 267 2 293 35 293 14 0
48 -51 111 -166 21 -38 45 -82 55 -99 10 -16 29 -50 42 -75 14 -25 34 -61 45
-80 11 -19 31 -55 43 -79 40 -78 45 -81 167 -81 133 0 118 -11 215 169 22 42
48 90 58 106 10 17 31 55 47 85 85 162 107 196 130 205 37 14 42 -17 42 -292
l0 -263 23 -5 c12 -3 67 -5 122 -3 l100 3 3 345 c3 382 1 393 -61 458 -54 56
-104 75 -188 71 -62 -4 -80 -9 -115 -33 -50 -36 -115 -125 -164 -221 -5 -11
-26 -47 -45 -80 -19 -33 -38 -67 -42 -75 -4 -8 -26 -47 -50 -86 -24 -39 -43
-76 -43 -81 0 -17 -40 -47 -49 -37 -5 5 -22 34 -38 64 -17 30 -47 87 -68 125
-21 39 -47 84 -57 100 -10 17 -22 39 -27 51 -22 49 -96 162 -130 197 -20 21
-53 47 -73 58 -51 26 -150 25 -201 -2z"/>
<path d="M493 4413 c-18 -7 -18 -601 0 -658 33 -107 111 -180 219 -204 68 -16
630 -14 690 2 51 13 113 64 156 129 l27 41 3 337 c3 284 1 339 -11 349 -10 8
-50 11 -123 9 l-109 -3 -5 -280 c-5 -300 -6 -303 -61 -349 l-31 -26 -212 0
c-205 0 -214 1 -247 23 -57 39 -59 46 -59 339 0 229 -2 269 -16 282 -12 13
-37 16 -112 15 -53 0 -103 -3 -109 -6z"/>
<path d="M3081 4406 c-8 -9 -11 -46 -9 -103 l3 -88 415 -5 c288 -3 421 -9 435
-17 37 -21 55 -49 61 -95 7 -51 -7 -69 -34 -45 -39 33 -83 37 -427 37 -360 0
-388 -3 -426 -47 -40 -45 -43 -64 -41 -238 2 -141 6 -174 20 -200 35 -59 40
-60 452 -60 341 0 378 2 410 18 33 17 35 17 48 0 11 -15 31 -19 123 -21 76 -3
114 0 124 8 13 10 15 62 15 318 l0 305 -31 63 c-39 82 -111 147 -183 168 -76
22 -937 24 -955 2z m812 -538 c25 -13 46 -38 47 -54 0 -5 -9 -20 -20 -32 -20
-22 -26 -22 -293 -22 -211 0 -277 3 -291 13 -26 19 -24 67 4 89 20 16 46 18
277 18 174 0 261 -4 276 -12z"/>
<path d="M6877 4403 c-12 -11 -8 -62 8 -100 8 -19 15 -44 15 -55 0 -11 9 -31
20 -45 11 -14 20 -31 20 -39 0 -16 33 -74 43 -74 4 0 7 -6 7 -13 0 -7 8 -20
18 -28 9 -9 31 -32 48 -52 36 -41 157 -127 179 -127 8 0 15 -4 15 -10 0 -5 12
-12 28 -16 15 -3 41 -12 57 -19 17 -7 55 -15 85 -17 44 -2 55 0 55 12 0 11
-19 18 -65 27 -65 11 -122 28 -150 44 -8 5 -22 12 -30 16 -18 8 -128 91 -150
113 -73 74 -154 226 -167 315 -11 74 -18 87 -36 68z"/>
<path d="M7120 4386 c0 -14 5 -28 10 -31 6 -3 10 -15 10 -25 0 -54 125 -220
166 -220 8 0 14 -4 14 -9 0 -10 81 -41 128 -48 28 -4 32 -2 32 16 0 18 -6 21
-39 21 -22 0 -44 6 -51 15 -7 8 -19 15 -27 15 -17 0 -88 52 -115 85 -10 11
-22 25 -28 32 -5 7 -10 16 -10 21 0 5 -7 15 -15 22 -8 7 -15 19 -15 27 0 22
-39 103 -50 103 -6 0 -10 -11 -10 -24z"/>
<path d="M6147 4308 c3 -51 12 -111 19 -133 8 -22 14 -51 14 -63 0 -13 6 -38
13 -55 23 -55 39 -101 44 -129 3 -15 11 -33 19 -39 8 -6 14 -16 14 -22 0 -13
33 -79 61 -122 10 -16 24 -40 30 -52 7 -13 16 -23 21 -23 4 0 8 -5 8 -11 0
-34 189 -231 303 -316 85 -64 129 -90 237 -144 84 -41 190 -79 221 -79 9 0 30
-7 45 -15 16 -8 48 -15 71 -15 23 0 52 -4 65 -9 13 -5 50 -10 83 -12 51 -3 60
-1 63 14 3 14 -4 17 -38 17 -47 0 -198 26 -245 42 -16 5 -46 14 -65 18 -45 11
-146 51 -180 71 -8 5 -21 11 -27 14 -33 13 -40 17 -68 35 -16 11 -37 23 -45
27 -40 18 -211 157 -262 211 -61 66 -148 176 -148 187 0 4 -13 24 -30 45 -16
21 -30 45 -30 53 0 9 -4 18 -9 21 -5 4 -19 27 -31 54 -11 26 -28 60 -35 75 -8
16 -15 38 -15 50 0 12 -7 31 -15 41 -8 11 -15 34 -15 50 0 17 -6 42 -13 57 -8
14 -17 59 -21 100 -11 116 -17 149 -32 149 -10 0 -11 -20 -7 -92z"/>
<path d="M6407 4387 c-3 -8 -1 -32 4 -53 4 -22 9 -61 9 -89 0 -27 7 -63 15
-79 8 -15 15 -39 15 -52 0 -13 7 -40 16 -61 36 -85 79 -170 106 -211 15 -24
28 -47 28 -52 0 -5 6 -13 13 -17 6 -4 30 -30 52 -58 21 -27 50 -60 62 -72 28
-27 150 -123 178 -140 39 -25 224 -113 236 -113 6 0 32 -6 58 -14 73 -23 135
-35 211 -42 67 -7 70 -6 70 15 0 19 -5 21 -58 21 -31 0 -73 5 -92 11 -19 5
-57 14 -85 19 -54 8 -104 24 -147 46 -14 8 -33 14 -41 14 -8 0 -20 7 -27 15
-7 8 -18 15 -26 15 -7 0 -33 14 -57 30 -25 17 -47 30 -50 30 -17 0 -201 177
-254 245 -17 22 -40 58 -52 80 -12 22 -26 47 -30 55 -5 8 -15 31 -24 50 -8 19
-21 51 -29 70 -31 74 -41 107 -49 175 -17 136 -24 168 -35 172 -6 2 -14 -3
-17 -10z"/>
<path d="M6657 4393 c-8 -14 11 -185 22 -196 6 -6 11 -20 11 -30 0 -41 73
-187 118 -235 6 -7 12 -17 12 -22 0 -14 113 -124 175 -171 88 -66 214 -123
305 -139 25 -4 61 -13 80 -19 19 -6 50 -11 67 -11 26 0 33 4 33 20 0 17 -7 20
-42 20 -47 0 -166 25 -213 46 -84 36 -125 57 -131 65 -3 5 -14 9 -25 9 -10 0
-19 4 -19 8 0 5 -21 24 -46 42 -26 18 -69 57 -97 86 -55 58 -147 188 -147 208
0 7 -7 21 -15 32 -8 10 -15 27 -15 36 0 10 -6 32 -14 50 -8 18 -19 68 -24 111
-9 74 -23 110 -35 90z"/>
<path d="M513 3058 c-7 -13 5 -25 49 -48 62 -32 151 -82 163 -90 6 -4 42 -24
80 -45 65 -36 92 -51 185 -103 19 -11 64 -36 100 -55 35 -19 66 -40 68 -46 3
-8 -89 -11 -331 -11 -351 0 -367 -2 -351 -44 6 -15 83 -16 893 -16 820 0 889
-1 931 -18 118 -45 152 -125 89 -211 -54 -75 5 -71 -1000 -71 -495 0 -904 -2
-909 -5 -4 -3 -6 -14 -3 -25 5 -19 14 -20 333 -20 274 0 330 -2 340 -15 10
-11 6 -17 -22 -29 -18 -8 -55 -28 -83 -44 -27 -16 -86 -48 -130 -72 -44 -24
-97 -54 -117 -67 -21 -12 -40 -23 -42 -23 -3 0 -32 -16 -64 -35 -33 -19 -86
-49 -119 -67 -32 -18 -66 -38 -76 -44 -17 -10 -18 -36 -18 -374 1 -200 4 -367
9 -372 5 -5 130 -7 278 -6 l269 3 5 365 5 365 855 5 c852 5 855 5 900 27 83
40 141 120 172 238 19 74 18 631 -1 700 -32 112 -99 194 -187 230 -47 19 -77
20 -849 22 -440 2 -939 4 -1108 6 -170 1 -311 -1 -314 -5z"/>
<path d="M3703 3050 c-52 -11 -139 -52 -213 -101 -68 -45 -177 -161 -207 -221
-56 -111 -53 -77 -53 -615 0 -472 1 -502 20 -555 11 -31 29 -72 40 -90 11 -18
23 -40 27 -48 23 -51 113 -148 193 -207 67 -49 104 -67 195 -93 68 -19 101
-20 1103 -20 l1032 0 -2 228 -3 227 -955 5 -955 5 -38 24 c-58 36 -89 92 -95
173 -3 48 -1 72 9 84 12 15 96 16 924 13 1034 -3 987 -7 1064 71 78 78 81 96
81 458 0 289 -1 316 -19 355 -48 102 -165 214 -293 280 l-63 32 -875 2 c-481
0 -894 -3 -917 -7z m992 -56 c71 -9 209 -77 268 -132 62 -58 117 -133 141
-192 29 -72 31 -74 77 -89 67 -20 131 -54 145 -76 29 -45 -25 -90 -144 -121
-62 -16 -72 -13 -72 26 0 59 -30 180 -61 246 -42 91 -149 199 -240 241 -165
77 -328 64 -474 -36 -188 -129 -252 -383 -141 -560 65 -102 242 -183 370 -169
215 25 328 284 198 455 -42 57 -82 74 -158 71 -43 -2 -69 -8 -72 -15 -3 -10
12 -13 53 -13 70 0 115 -24 153 -84 23 -35 26 -51 25 -117 0 -63 -5 -82 -26
-117 -49 -77 -130 -121 -221 -122 -106 0 -216 72 -266 174 -30 61 -32 70 -28
153 5 112 37 181 119 257 91 84 134 101 259 100 97 0 110 -2 170 -32 136 -66
215 -173 239 -323 21 -126 7 -223 -45 -321 -42 -78 -155 -186 -234 -224 -200
-96 -448 -48 -614 120 -69 69 -126 161 -142 229 -7 29 -39 48 -105 62 -88 19
-129 93 -71 131 46 31 95 47 147 48 l50 1 11 -110 c14 -148 49 -223 148 -320
192 -189 463 -204 651 -36 103 91 155 202 155 331 0 132 -52 237 -155 315 -69
53 -108 65 -201 65 -78 0 -92 -3 -146 -32 -88 -47 -154 -141 -172 -247 -9 -52
21 -145 59 -184 38 -40 130 -77 169 -70 33 7 16 23 -24 23 -15 0 -31 5 -37 11
-6 6 -22 16 -34 23 -13 6 -36 29 -51 51 -24 35 -27 50 -28 113 0 66 3 78 34
127 40 62 98 100 178 117 47 10 61 9 120 -11 81 -27 148 -83 185 -155 24 -45
27 -63 27 -151 1 -110 -13 -157 -66 -227 -34 -44 -115 -98 -183 -121 -139 -48
-339 12 -449 134 -54 60 -80 112 -102 206 -17 68 -17 76 0 155 24 111 69 200
136 267 67 68 80 78 150 115 55 30 196 58 250 50 14 -2 48 -6 75 -10z"/>
<path d="M6137 3053 c-16 -4 -17 -42 -14 -711 2 -440 7 -723 13 -748 6 -23 31
-81 55 -130 35 -72 61 -106 130 -176 48 -48 98 -93 110 -98 13 -6 40 -20 59
-30 19 -10 64 -28 100 -40 65 -20 81 -20 835 -18 l770 3 67 32 c117 57 244
193 320 343 l23 45 3 759 c2 609 0 761 -10 768 -22 14 -522 10 -541 -4 -15
-12 -17 -67 -19 -638 l-3 -625 -38 -57 c-36 -54 -76 -91 -139 -131 -25 -15
-72 -17 -489 -17 -457 0 -463 0 -508 22 -57 27 -131 101 -163 159 l-23 44 -3
620 c-2 470 -6 621 -15 627 -13 8 -489 9 -520 1z"/>
<path d="M507 783 c-4 -7 -3 -253 3 -401 0 -9 11 -12 33 -10 l32 3 5 85 5 84
58 15 57 15 0 93 c0 85 -2 93 -22 104 -28 15 -163 25 -171 12z m131 -49 c20
-14 23 -23 20 -67 -3 -46 -6 -53 -31 -61 -37 -14 -47 0 -49 65 -2 80 13 96 60
63z"/>
<path d="M784 777 c-2 -7 -3 -100 -2 -207 l3 -195 30 0 30 0 3 85 c3 90 12
110 48 110 32 0 38 -14 44 -110 5 -83 6 -85 30 -85 25 0 25 2 28 86 2 68 -1
89 -13 99 -19 16 -19 44 0 60 10 8 15 31 15 70 0 55 -2 59 -34 79 -40 25 -173
31 -182 8z m134 -36 c19 -11 27 -83 13 -110 -15 -27 -57 -28 -71 -2 -16 31
-12 79 10 101 22 22 29 24 48 11z"/>
<path d="M1125 774 c-41 -41 -47 -72 -43 -203 5 -141 16 -173 65 -196 56 -27
143 -1 157 48 4 12 10 68 13 125 7 120 -8 205 -41 228 -29 20 -130 19 -151 -2z
m109 -40 c10 -26 7 -281 -4 -308 -12 -33 -33 -33 -60 1 -20 26 -21 37 -18 166
2 109 6 140 18 147 23 15 57 12 64 -6z"/>
<path d="M1424 769 c-17 -19 -19 -38 -19 -189 0 -167 0 -169 25 -192 22 -20
33 -23 103 -21 43 1 82 5 88 8 5 4 9 49 9 101 0 102 -6 112 -53 100 -21 -5
-22 -9 -19 -74 4 -74 -9 -102 -49 -102 -30 0 -39 39 -41 178 -2 152 3 172 41
172 34 0 48 -15 53 -55 3 -26 8 -30 36 -33 31 -3 32 -2 32 32 0 25 -8 43 -31
65 -28 28 -37 31 -93 31 -51 0 -66 -4 -82 -21z"/>
<path d="M1714 777 c-2 -7 -3 -100 -2 -207 l3 -195 33 -3 c36 -4 33 -12 36
106 1 75 10 92 49 92 24 0 37 -39 37 -110 0 -74 6 -90 36 -90 23 0 24 2 24 87
0 68 -4 91 -17 105 -17 19 -17 21 0 50 10 18 17 51 17 83 0 50 -2 55 -34 74
-40 25 -173 31 -182 8z m135 -36 c20 -13 26 -92 8 -115 -21 -28 -63 -15 -72
23 -8 37 3 79 24 91 20 12 23 12 40 1z"/>
<path d="M2056 736 c-9 -30 -16 -77 -16 -106 0 -28 -4 -60 -10 -70 -5 -10 -13
-57 -16 -104 l-7 -86 31 0 c26 0 33 5 38 28 11 49 13 52 48 52 31 0 36 -4 42
-27 11 -50 14 -54 36 -51 21 3 23 9 26 62 2 35 -3 79 -12 107 -9 26 -16 67
-16 91 -1 24 -7 61 -15 83 -8 22 -15 48 -15 58 0 14 -9 17 -49 17 l-50 0 -15
-54z m96 -94 c23 -89 -6 -174 -49 -146 -23 15 -26 142 -4 168 21 25 44 15 53
-22z"/>
<path d="M2310 579 l0 -210 33 3 32 3 5 102 c7 153 42 165 52 18 11 -151 67
-174 68 -29 0 52 20 117 41 129 21 14 30 -13 33 -109 3 -94 15 -131 35 -110 6
5 11 99 12 209 l1 200 -51 3 -51 3 0 -42 c0 -60 -28 -121 -55 -117 -16 2 -21
13 -26 53 -4 28 -12 62 -18 78 -9 24 -15 27 -61 27 l-50 0 0 -211z"/>
<path d="M2766 778 c-12 -41 -36 -173 -36 -198 0 -16 -7 -55 -15 -87 -8 -31
-15 -72 -15 -90 0 -30 3 -33 30 -33 24 0 31 5 36 28 11 50 13 52 53 52 36 0
41 -3 47 -27 9 -39 23 -53 51 -53 23 0 25 3 19 33 -4 17 -11 64 -16 104 -4 40
-12 78 -16 85 -5 7 -11 42 -15 78 -4 36 -11 77 -18 93 -9 24 -16 27 -56 27
-28 0 -47 -5 -49 -12z m84 -193 c0 -68 -3 -84 -16 -89 -52 -20 -73 30 -48 113
22 71 32 85 50 70 10 -8 14 -36 14 -94z"/>
<path d="M3115 784 c-10 -4 -11 -373 -1 -401 4 -11 23 -14 78 -12 73 2 88 9
88 42 0 14 -9 17 -45 17 l-45 0 0 58 c0 60 11 82 42 82 31 0 22 38 -9 42 -26
3 -28 7 -31 53 -4 54 12 75 54 75 22 0 39 24 28 41 -5 9 -139 12 -159 3z"/>
<path d="M3351 756 c-33 -52 -28 -103 14 -148 18 -21 38 -38 42 -38 5 0 24
-13 43 -28 29 -25 33 -34 32 -72 -3 -65 -32 -89 -66 -54 -10 9 -16 33 -16 60
0 31 -4 44 -14 44 -7 0 -19 7 -26 15 -22 27 -30 16 -30 -44 0 -53 3 -63 31
-90 47 -48 106 -53 164 -15 23 15 25 23 25 88 0 69 -1 73 -34 104 -19 18 -37
32 -41 32 -3 0 -22 12 -41 27 -31 23 -35 30 -32 67 3 40 4 41 38 41 32 0 35
-3 38 -32 2 -22 12 -39 32 -53 15 -11 31 -20 34 -20 3 0 6 24 6 53 0 77 -24
97 -112 97 -65 0 -67 -1 -87 -34z"/>
<path d="M3638 785 c-10 -10 -9 -387 1 -403 5 -8 21 -12 37 -10 29 3 29 4 32
78 2 41 8 80 13 87 6 6 35 19 64 27 59 18 65 27 65 113 0 40 -5 58 -24 80 -22
25 -31 28 -103 31 -43 2 -81 1 -85 -3z m142 -54 c18 -35 12 -106 -11 -127 -21
-19 -21 -18 -40 5 -24 29 -26 103 -3 125 21 21 41 20 54 -3z"/>
<path d="M3956 782 c-3 -5 -10 -43 -16 -83 -6 -41 -17 -103 -25 -139 -8 -36
-17 -93 -20 -127 l-6 -63 34 0 c37 0 47 12 47 56 0 23 3 25 37 22 34 -3 38 -6
46 -41 8 -33 12 -38 36 -35 23 3 26 8 29 46 2 24 -2 65 -8 90 -6 26 -15 78
-20 115 -5 38 -13 74 -19 80 -5 7 -11 28 -13 47 -3 34 -4 35 -50 38 -25 2 -49
-1 -52 -6z m86 -150 c22 -86 -6 -163 -49 -136 -22 13 -30 122 -13 154 17 33
52 22 62 -18z"/>
<path d="M4223 766 c-22 -23 -23 -32 -23 -185 l0 -162 27 -25 c47 -43 114 -44
165 -1 22 18 28 32 30 72 2 47 1 50 -22 50 -21 0 -27 -7 -39 -52 -9 -34 -20
-55 -32 -58 -30 -10 -56 11 -63 52 -8 50 -7 197 2 248 7 38 9 40 42 40 32 0
36 -3 50 -43 13 -37 18 -42 40 -40 23 3 25 7 22 43 -6 64 -33 85 -111 85 -56
0 -69 -4 -88 -24z"/>
<path d="M4510 785 c0 -3 0 -90 0 -195 0 -104 0 -197 0 -205 0 -9 9 -15 24
-15 57 0 56 -5 56 216 l0 204 -40 0 c-22 0 -40 -2 -40 -5z"/>
<path d="M4717 784 c-4 -4 -7 -32 -7 -63 0 -31 -7 -74 -15 -96 -8 -22 -14 -63
-15 -91 0 -28 -7 -68 -15 -87 -25 -60 -20 -77 19 -77 31 0 34 3 40 34 7 35 21
46 61 46 27 0 42 -16 47 -50 2 -20 9 -26 36 -28 30 -3 32 -2 32 30 -1 18 -7
44 -15 58 -8 14 -14 46 -15 72 0 26 -5 59 -11 75 -7 15 -15 62 -18 103 l-6 75
-55 3 c-31 2 -59 0 -63 -4z m77 -126 c21 -103 14 -168 -19 -168 -24 0 -36 37
-30 92 10 82 14 98 30 98 8 0 17 -10 19 -22z"/>
<path d="M4960 593 c0 -142 3 -202 12 -211 7 -7 39 -12 75 -12 l63 0 0 29 c0
25 -5 30 -27 33 -38 4 -44 35 -42 208 l2 145 -41 3 -42 3 0 -198z"/>
<path d="M5280 606 l0 -184 30 -26 c43 -36 94 -43 139 -20 20 10 39 23 43 29
4 5 8 94 8 198 l0 187 -35 0 -35 0 -2 -177 -3 -178 -29 -3 c-16 -2 -32 2 -37
10 -5 7 -9 88 -9 181 l0 167 -35 0 -35 0 0 -184z"/>
<path d="M5590 579 l0 -210 28 3 c26 3 27 6 30 63 3 79 9 105 26 105 16 0 56
-63 56 -87 0 -30 32 -83 51 -83 27 0 30 24 27 230 l-3 185 -25 0 c-23 0 -24
-3 -21 -53 3 -60 -6 -112 -20 -112 -20 0 -52 45 -61 84 -13 57 -34 86 -63 86
l-25 0 0 -211z"/>
<path d="M5910 786 c-3 -2 -3 -96 0 -208 l5 -203 30 0 30 0 0 205 0 205 -30 3
c-17 2 -33 1 -35 -2z"/>
<path d="M6044 768 c4 -13 11 -58 16 -100 5 -42 13 -86 19 -97 6 -11 11 -47
11 -80 0 -67 14 -108 41 -116 27 -9 101 3 111 17 4 7 8 41 8 76 0 35 5 72 11
83 5 11 14 62 18 113 4 51 11 98 15 104 8 13 -31 26 -61 20 -16 -3 -19 -17
-23 -108 -5 -107 -11 -130 -34 -130 -29 0 -40 33 -45 133 l-6 102 -44 3 c-42
3 -43 2 -37 -20z"/>
<path d="M6364 777 c-2 -7 -3 -100 -2 -207 l3 -195 76 -2 c71 -2 77 0 83 19 7
30 0 38 -38 38 -41 0 -56 15 -56 60 0 43 22 77 53 82 32 4 27 30 -7 39 -35 10
-46 24 -46 65 0 37 17 54 57 58 22 2 29 9 31 30 l3 26 -76 0 c-52 0 -77 -4
-81 -13z"/>
<path d="M6602 583 l3 -208 30 0 30 0 3 75 c3 113 7 122 45 118 l32 -3 3 -75
c3 -110 7 -122 40 -118 27 3 27 4 30 91 2 71 0 88 -13 93 -20 8 -20 60 0 68
11 4 15 20 15 56 0 44 -5 56 -29 81 -28 27 -34 29 -110 29 l-81 0 2 -207z
m137 153 c7 -8 11 -37 9 -68 l-3 -53 -35 0 -35 0 -3 53 c-3 57 8 82 38 82 10
0 23 -6 29 -14z"/>
<path d="M6922 774 c-19 -13 -22 -24 -22 -79 0 -71 0 -70 91 -140 56 -44 59
-48 59 -91 0 -37 -4 -46 -22 -53 -35 -13 -58 4 -58 44 0 43 -9 65 -26 65 -8 0
-17 7 -20 15 -13 33 -24 11 -24 -47 0 -69 2 -74 44 -106 39 -30 91 -29 139 3
36 25 37 27 37 88 0 57 -3 65 -33 97 -19 19 -51 45 -73 56 -37 21 -39 24 -39
70 0 44 2 49 24 52 28 4 51 -20 51 -54 0 -15 10 -28 32 -38 17 -9 32 -16 32
-16 7 0 -6 106 -13 108 -6 2 -11 10 -11 17 0 18 -23 25 -89 25 -35 0 -65 -6
-79 -16z"/>
<path d="M7202 583 l3 -208 30 0 30 0 3 208 2 207 -35 0 -35 0 2 -207z"/>
<path d="M7345 780 c-10 -16 13 -48 37 -52 23 -3 23 -6 28 -178 l5 -175 33 -3
32 -3 0 170 0 170 28 14 c15 8 32 12 38 10 12 -4 26 35 18 49 -7 11 -212 10
-219 -2z"/>
<path d="M7637 721 c-10 -38 -17 -88 -17 -112 0 -24 -7 -62 -15 -84 -8 -22
-14 -66 -15 -98 l0 -58 33 3 c28 3 33 7 37 38 4 31 9 35 39 38 37 4 51 -9 51
-45 0 -23 38 -42 59 -29 13 9 4 128 -14 181 -7 22 -16 67 -19 100 -2 33 -10
77 -16 98 -11 36 -12 37 -59 37 l-48 0 -16 -69z m94 -72 c4 -13 7 -50 8 -81 1
-48 -2 -59 -19 -68 -14 -8 -26 -7 -41 1 -20 10 -21 17 -16 82 5 52 11 75 24
84 23 17 36 12 44 -18z"/>
<path d="M7894 777 c-2 -7 -3 -100 -2 -207 l3 -195 33 -3 32 -3 0 85 c0 46 3
91 6 100 7 19 59 22 70 4 6 -9 13 -97 14 -176 0 -9 10 -12 28 -10 27 3 27 3
30 89 2 68 -1 89 -13 99 -19 16 -19 44 0 60 10 8 15 31 15 70 0 55 -2 59 -34
79 -40 25 -173 31 -182 8z m130 -40 c12 -9 18 -27 18 -60 1 -59 -12 -74 -49
-61 -25 8 -28 15 -31 57 -4 68 21 94 62 64z"/>
<path d="M8200 786 c-4 -3 -4 -351 -1 -403 1 -16 57 -17 66 -2 4 5 7 99 8 207
l0 197 -34 3 c-19 2 -37 1 -39 -2z"/>
<path d="M8391 769 c-23 -19 -25 -26 -27 -147 -2 -70 0 -149 4 -176 6 -44 11
-51 44 -68 50 -26 111 -17 150 22 l28 28 0 142 c0 193 -15 220 -122 220 -38
-1 -60 -6 -77 -21z m117 -31 c8 -8 12 -57 12 -153 0 -137 -1 -142 -24 -165
-51 -47 -66 -11 -66 166 0 130 9 164 43 164 13 0 28 -5 35 -12z"/>
</g>
</svg>
