<?xml version="1.0" standalone="no"?>
<!DOCTYPE svg PUBLIC "-//W3C//DTD SVG 20010904//EN"
 "http://www.w3.org/TR/2001/REC-SVG-20010904/DTD/svg10.dtd">
<svg version="1.0" xmlns="http://www.w3.org/2000/svg"
 width="300.000000pt" height="300.000000pt" viewBox="0 0 300.000000 300.000000"
 preserveAspectRatio="xMidYMid meet">
<metadata>
Created by potrace 1.10, written by Peter Selinger 2001-2011
</metadata>
<g transform="translate(0.000000,300.000000) scale(0.100000,-0.100000)"
fill="#ffffff" stroke="none">
<path d="M2247 2422 c-20 -21 -37 -42 -37 -48 0 -5 36 -45 80 -89 78 -78 80
-79 100 -60 28 26 36 13 32 -57 l-4 -59 44 3 c24 2 48 7 54 11 7 4 17 1 23 -7
9 -10 8 -16 -4 -26 -8 -7 -15 -18 -15 -24 0 -6 36 -47 80 -91 l80 -79 40 39
c22 21 40 46 40 55 0 17 -139 160 -157 160 -6 0 -16 -7 -23 -15 -24 -29 -35
-11 -32 51 l4 59 -46 2 c-25 1 -48 -3 -52 -8 -3 -6 -11 -5 -20 2 -13 10 -12
15 7 35 l22 23 -78 81 c-43 44 -84 80 -90 80 -6 0 -28 -17 -48 -38z m116 -56
c35 -35 61 -70 58 -77 -5 -18 -42 -50 -52 -47 -18 7 -129 121 -129 133 0 11
45 55 56 55 2 0 32 -29 67 -64z m163 -176 c1 -35 -14 -50 -47 -50 -24 0 -29 4
-29 24 0 45 10 57 44 54 25 -2 31 -8 32 -28z m171 -159 l44 -45 -30 -30 -30
-30 -64 60 c-72 66 -81 91 -39 116 31 19 29 20 119 -71z"/>
<path d="M646 2099 c-25 -20 -26 -23 -26 -140 l0 -119 40 0 40 0 0 101 c0 55
4 99 9 97 4 -1 32 -32 61 -68 119 -146 148 -164 201 -121 22 18 24 27 27 140
l4 121 -41 0 -41 0 0 -95 c0 -52 -4 -95 -9 -95 -5 0 -44 41 -87 91 -102 118
-125 130 -178 88z m97 -39 c27 -30 21 -43 -7 -15 -18 18 -40 19 -54 2 -6 -7
-12 -49 -14 -92 -2 -49 -7 -78 -13 -75 -15 8 -9 191 7 201 25 16 55 9 81 -21z
m224 -81 c-2 -105 -8 -119 -52 -119 -19 0 -83 67 -78 82 2 4 -6 10 -17 13 -11
4 -20 14 -20 23 1 11 15 1 43 -30 42 -46 78 -61 92 -38 4 6 8 47 10 93 3 95 2
90 15 82 5 -3 8 -51 7 -106z m-177 24 c0 -10 -4 -14 -8 -8 -4 6 -11 13 -16 18
-5 4 -2 7 7 7 10 0 17 -8 17 -17z"/>
<path d="M1476 2099 c-25 -20 -26 -23 -26 -140 l0 -119 41 0 41 0 -4 90 c-2
56 1 90 7 90 6 0 32 -41 58 -90 48 -90 48 -90 87 -90 39 0 39 0 87 90 26 49
51 90 56 90 4 0 7 -40 7 -90 l0 -90 40 0 40 0 0 119 c0 117 -1 120 -26 140
-57 45 -88 26 -154 -90 l-52 -91 -40 74 c-42 78 -87 128 -117 128 -10 0 -30
-9 -45 -21z m61 -19 c22 -8 39 -28 67 -80 20 -39 44 -76 52 -84 22 -23 47 -8
73 44 14 27 28 47 33 44 4 -3 8 3 8 14 0 26 44 72 69 72 35 0 53 -51 49 -141
-4 -99 -22 -99 -26 -1 -2 58 -6 74 -22 82 -34 18 -50 1 -110 -117 -18 -35 -27
-43 -49 -43 -24 0 -32 9 -57 58 -15 31 -32 59 -36 60 -4 2 -8 9 -8 16 0 7 -11
19 -25 26 -41 22 -59 -4 -60 -87 0 -101 -20 -79 -22 25 -1 66 3 91 15 105 18
20 12 19 49 7z"/>
<path d="M1990 2093 c0 -37 26 -126 52 -177 27 -52 99 -128 156 -164 75 -48
222 -85 222 -58 0 9 -19 16 -54 20 -168 21 -323 176 -344 343 -7 60 -32 87
-32 36z"/>
<path d="M2076 2111 c-3 -5 -2 -32 4 -60 27 -146 148 -261 290 -278 70 -8 64
12 -7 26 -75 14 -152 59 -193 111 -39 49 -70 127 -70 175 0 33 -12 46 -24 26z"/>
<path d="M2152 2077 c13 -115 107 -209 231 -232 30 -6 37 -4 37 9 0 11 -9 16
-28 16 -46 0 -134 51 -169 97 -18 24 -37 66 -44 98 -14 65 -34 74 -27 12z"/>
<path d="M2220 2098 c1 -59 66 -146 127 -169 54 -20 73 -22 73 -5 0 10 -9 16
-23 16 -41 0 -112 54 -136 102 -11 24 -21 52 -21 61 0 9 -4 17 -10 17 -5 0
-10 -10 -10 -22z"/>
<path d="M2297 2114 c-10 -10 13 -61 41 -87 34 -33 82 -46 82 -23 0 10 -8 16
-21 16 -26 0 -79 55 -79 81 0 19 -11 25 -23 13z"/>
<path d="M240 2004 c0 -103 1 -106 29 -135 29 -29 30 -29 148 -29 113 0 121 1
142 24 20 21 22 35 24 135 l2 111 -40 0 -40 0 3 -79 c6 -116 0 -122 -101 -119
l-82 3 -3 98 -3 97 -39 0 -40 0 0 -106z m74 -103 c16 -18 31 -21 91 -21 102 0
118 16 125 118 3 48 10 77 18 80 9 3 12 -18 12 -84 0 -122 -3 -124 -143 -124
-98 0 -113 2 -132 20 -20 19 -22 29 -18 98 6 111 16 120 23 20 4 -65 10 -91
24 -107z"/>
<path d="M1040 2078 l0 -33 124 3 c134 4 166 -4 166 -40 0 -17 -3 -19 -12 -10
-8 8 -52 12 -133 12 -81 0 -125 -4 -133 -12 -16 -16 -16 -130 0 -146 17 -17
249 -17 266 0 9 9 12 9 12 0 0 -7 16 -12 40 -12 l40 0 0 106 c0 103 -1 106
-29 135 l-29 29 -156 0 -156 0 0 -32z m325 -20 c22 -26 25 -39 25 -108 0 -43
-4 -82 -10 -85 -5 -3 -10 0 -10 7 0 10 -3 9 -9 -1 -7 -11 -13 -12 -23 -3 -9 7
-19 8 -28 2 -32 -21 -32 -8 0 19 34 28 34 28 17 55 -16 24 -22 26 -95 26 -53
0 -72 3 -62 10 19 12 85 13 127 1 50 -14 73 30 36 71 -14 15 -32 18 -135 18
-65 0 -118 4 -118 9 0 5 58 9 130 9 l130 0 25 -30z m-246 -99 c-22 -22 -25
-54 -6 -66 6 -4 41 -10 77 -14 l65 -5 -84 -5 c-45 -2 -87 -1 -93 2 -9 6 -12
37 -9 86 1 14 9 23 24 25 38 6 47 -2 26 -23z m191 -34 c0 -12 -17 -15 -95 -15
-78 0 -95 3 -95 15 0 12 17 15 95 15 78 0 95 -3 95 -15z"/>
<path d="M240 1689 c0 -3 19 -15 43 -27 62 -32 167 -89 172 -94 2 -2 -45 -4
-105 -3 -60 0 -111 -4 -112 -8 -2 -5 121 -8 272 -8 287 1 321 -3 328 -42 9
-45 -4 -47 -309 -47 -181 0 -290 -4 -294 -10 -4 -6 36 -10 112 -10 l118 0
-112 -62 -113 -63 0 -117 0 -118 85 0 85 0 0 115 0 115 269 0 c256 0 270 1
294 21 38 29 50 80 45 197 -3 95 -5 103 -31 129 l-27 28 -360 5 c-198 3 -360
3 -360 -1z m716 -36 c12 -7 24 -23 27 -35 8 -31 12 -157 5 -163 -3 -3 -3 -21
-1 -40 2 -25 -1 -37 -12 -41 -8 -3 -13 -10 -10 -14 11 -17 -40 -21 -275 -21
-180 1 -252 -2 -270 -12 -24 -12 -25 -17 -28 -115 l-3 -103 -62 3 -62 3 -3 86
-3 86 53 35 c29 19 81 51 115 71 l61 37 160 0 c146 0 161 2 186 21 33 26 35
70 4 99 -23 21 -39 23 -251 20 -97 -1 -99 -1 -152 34 -29 20 -61 39 -69 42 -9
3 -16 9 -16 13 0 14 583 7 606 -6z"/>
<path d="M1205 1673 c-45 -23 -86 -64 -101 -100 -10 -23 -14 -77 -14 -183 0
-166 8 -197 67 -252 59 -56 74 -58 428 -58 l325 0 0 73 0 72 -298 2 c-163 1
-300 3 -304 3 -17 0 -38 34 -38 61 l0 29 296 0 c173 0 303 4 314 10 28 15 40
64 40 160 0 80 -2 90 -29 127 -51 71 -63 73 -378 73 -233 -1 -283 -3 -308 -17z
m183 -25 c-11 -11 -26 -35 -34 -54 -8 -19 -19 -32 -24 -29 -16 10 -90 -37 -90
-56 0 -20 26 -49 44 -49 7 0 22 -17 34 -39 12 -21 29 -44 37 -51 26 -22 17
-30 -34 -30 -51 0 -81 -17 -81 -46 0 -24 29 -73 49 -84 12 -6 125 -10 295 -10
166 0 277 -4 281 -10 3 -5 7 -25 9 -45 l2 -35 -321 0 c-286 0 -323 2 -345 17
-81 56 -90 85 -90 276 0 143 2 156 23 187 36 54 98 80 188 79 76 -2 76 -2 57
-21z m218 -3 c28 -16 49 -39 61 -65 10 -22 25 -40 34 -40 8 0 24 -6 35 -14 22
-17 13 -31 -26 -41 -24 -6 -27 -2 -38 41 -22 83 -101 138 -179 127 -18 -3 -49
-19 -69 -37 -31 -27 -37 -39 -42 -84 -3 -38 0 -58 13 -78 18 -28 70 -54 109
-54 37 0 76 39 83 82 4 30 1 41 -20 62 -30 30 -55 33 -83 10 -18 -15 -12 -15
28 1 22 9 58 -28 58 -60 0 -31 -41 -75 -70 -75 -53 0 -100 49 -100 104 0 37
42 90 82 103 87 29 168 -40 168 -141 0 -40 -34 -93 -79 -123 -82 -55 -215 -5
-245 93 -4 14 -18 24 -36 28 -37 7 -39 29 -5 44 38 17 45 15 45 -13 0 -91 107
-179 189 -155 73 21 111 67 111 136 0 49 -28 90 -77 110 -78 33 -162 -54 -122
-127 14 -26 55 -42 77 -29 14 8 12 9 -10 10 -56 0 -77 63 -36 107 45 48 131
16 144 -53 13 -67 -41 -134 -109 -134 -43 0 -97 29 -119 64 -25 41 -20 120 10
163 46 65 143 82 218 38z m200 6 c71 -32 84 -59 83 -171 -1 -136 -5 -140 -147
-140 -122 0 -141 6 -114 36 9 10 23 31 29 46 9 19 22 29 47 33 40 8 69 36 64
61 -2 10 -18 28 -36 40 -32 22 -82 85 -82 104 0 17 113 11 156 -9z"/>
<path d="M1990 1468 c0 -194 3 -228 19 -263 19 -43 78 -100 118 -116 13 -5
132 -9 264 -9 260 0 269 2 320 57 57 60 59 73 59 323 l0 230 -90 0 -90 0 0
-191 c0 -271 2 -268 -212 -269 l-148 0 -32 29 -33 29 -3 201 -3 201 -85 0 -84
0 0 -222z m143 193 c4 -1 7 -82 7 -180 -2 -266 1 -269 232 -272 166 -2 183 2
217 49 18 26 20 47 23 218 l3 189 45 2 c86 3 81 20 80 -231 -1 -220 -2 -224
-26 -260 -43 -62 -55 -65 -312 -66 -139 -1 -246 3 -271 10 -39 10 -71 41 -100
97 -13 26 -21 401 -9 433 8 20 16 21 111 11z"/>
<path d="M240 920 c0 -63 2 -70 20 -70 16 0 19 5 14 30 -6 26 -4 30 15 30 18
0 21 6 21 40 0 39 -1 40 -35 40 l-35 0 0 -70z m50 30 c0 -11 -4 -20 -10 -20
-5 0 -10 9 -10 20 0 11 5 20 10 20 6 0 10 -9 10 -20z"/>
<path d="M328 920 c-3 -61 -1 -70 15 -70 13 0 17 8 17 36 0 21 4 33 10 29 6
-3 10 -19 10 -36 0 -19 5 -29 15 -29 12 0 14 12 11 63 -2 34 -4 65 -5 70 -1 4
-16 7 -35 7 l-34 0 -4 -70z m52 36 c0 -8 -4 -18 -10 -21 -5 -3 -10 3 -10 14 0
12 5 21 10 21 6 0 10 -6 10 -14z"/>
<path d="M426 975 c-9 -24 -7 -98 3 -113 5 -8 21 -12 37 -10 29 3 29 4 29 68
l0 65 -31 3 c-22 2 -33 -2 -38 -13z m44 -56 c0 -31 -4 -48 -10 -44 -17 11 -12
95 7 95 2 0 3 -23 3 -51z"/>
<path d="M524 977 c-3 -8 -4 -39 -2 -68 l3 -54 38 -3 c36 -3 37 -3 37 32 0 25
-4 36 -15 36 -9 0 -15 -9 -15 -25 0 -14 -4 -25 -10 -25 -5 0 -10 23 -10 50 0
28 5 50 10 50 6 0 10 -7 10 -15 0 -8 7 -15 16 -15 10 0 14 7 12 23 -2 17 -11
23 -36 25 -21 2 -34 -2 -38 -11z"/>
<path d="M618 920 c3 -52 7 -70 18 -70 9 0 14 12 14 36 0 21 4 33 10 29 6 -3
10 -19 10 -36 0 -27 3 -29 35 -29 24 0 35 5 35 15 0 8 5 15 10 15 6 0 10 -7
10 -15 0 -8 7 -15 16 -15 14 0 15 8 9 48 -12 83 -16 92 -40 92 -21 0 -23 -6
-30 -67 -8 -64 -9 -66 -16 -33 -5 19 -6 41 -3 49 11 31 -6 51 -44 51 l-37 0 3
-70z m44 18 c-9 -9 -12 -7 -12 12 0 19 3 21 12 12 9 -9 9 -15 0 -24z m98 -25
c0 -7 -4 -13 -10 -13 -5 0 -10 12 -10 28 0 21 2 24 10 12 5 -8 10 -21 10 -27z"/>
<path d="M800 920 c0 -58 3 -70 16 -70 13 0 15 9 13 44 -2 24 -1 42 4 39 4 -2
7 -15 7 -28 0 -13 3 -30 6 -39 12 -31 24 -16 24 30 0 29 4 43 11 39 6 -4 8
-22 4 -46 -5 -31 -4 -39 8 -39 12 0 16 16 19 70 3 66 2 70 -18 70 -15 0 -24
-9 -32 -32 l-10 -33 -1 33 c-1 27 -5 32 -26 32 -24 0 -25 -2 -25 -70z"/>
<path d="M935 938 c-3 -29 -9 -61 -11 -70 -4 -13 0 -18 15 -18 12 0 21 6 21
16 0 8 5 12 10 9 6 -4 8 -11 5 -16 -4 -5 3 -9 14 -9 25 0 24 -4 10 77 -10 56
-14 63 -34 63 -20 0 -24 -6 -30 -52z m32 -25 c-3 -10 -5 -4 -5 12 0 17 2 24 5
18 2 -7 2 -21 0 -30z"/>
<path d="M1050 920 l0 -70 30 0 c20 0 30 5 30 15 0 8 -7 15 -15 15 -8 0 -15 7
-15 15 0 8 7 15 15 15 8 0 15 5 15 10 0 6 -7 13 -15 16 -8 4 -15 10 -15 15 0
5 7 9 15 9 8 0 15 7 15 15 0 10 -10 15 -30 15 l-30 0 0 -70z"/>
<path d="M1127 983 c-8 -13 -6 -108 2 -122 5 -7 21 -11 37 -9 24 2 30 8 32 34
2 24 -2 33 -23 44 -24 13 -35 40 -15 40 6 0 10 -6 10 -14 0 -8 7 -17 16 -20
12 -5 15 0 12 22 -2 22 -9 28 -35 30 -17 2 -33 -1 -36 -5z m31 -75 c13 -13 16
-38 5 -38 -5 0 -13 11 -20 25 -12 27 -5 33 15 13z"/>
<path d="M1215 920 c0 -60 3 -70 18 -70 12 0 17 8 17 29 0 21 6 30 21 34 16 4
20 12 17 39 -3 30 -6 33 -38 36 l-36 3 1 -71z m47 18 c-9 -9 -12 -7 -12 12 0
19 3 21 12 12 9 -9 9 -15 0 -24z"/>
<path d="M1307 953 c-4 -21 -9 -53 -13 -70 -6 -29 -4 -33 15 -33 12 0 21 6 21
15 0 8 5 15 11 15 6 0 9 -7 5 -15 -4 -10 1 -15 15 -15 17 0 20 5 16 23 -3 12
-9 43 -12 70 -6 40 -11 47 -30 47 -18 0 -24 -7 -28 -37z m30 -40 c-3 -10 -5
-4 -5 12 0 17 2 24 5 18 2 -7 2 -21 0 -30z"/>
<path d="M1394 977 c-3 -8 -4 -39 -2 -68 l3 -54 35 0 c31 0 35 3 38 28 2 19
-1 27 -12 27 -9 0 -16 -9 -16 -20 0 -11 -4 -20 -10 -20 -5 0 -10 23 -10 50 0
28 5 50 10 50 6 0 10 -7 10 -15 0 -8 7 -15 16 -15 10 0 14 7 12 23 -2 17 -11
23 -36 25 -21 2 -34 -2 -38 -11z"/>
<path d="M1485 920 c0 -60 3 -70 18 -70 15 0 17 10 17 70 0 60 -2 70 -17 70
-15 0 -18 -10 -18 -70z"/>
<path d="M1545 948 c-3 -24 -8 -55 -11 -70 -5 -24 -2 -28 16 -28 12 0 19 4 15
9 -3 5 -1 12 5 16 5 3 10 -1 10 -9 0 -10 9 -16 21 -16 14 0 19 5 16 13 -3 8
-8 39 -12 70 -7 51 -10 57 -30 57 -20 0 -24 -7 -30 -42z m32 -35 c-3 -10 -5
-4 -5 12 0 17 2 24 5 18 2 -7 2 -21 0 -30z"/>
<path d="M1628 920 c4 -70 4 -70 33 -70 19 0 29 5 29 15 0 8 -7 15 -15 15 -12
0 -15 13 -15 55 0 46 -3 55 -17 55 -16 0 -18 -9 -15 -70z"/>
<path d="M1720 932 c0 -62 11 -82 45 -82 34 0 45 20 45 82 0 51 -2 58 -20 58
-16 0 -20 -8 -23 -62 l-3 -63 -2 63 c-2 55 -4 62 -22 62 -18 0 -20 -7 -20 -58z"/>
<path d="M1820 920 c0 -56 3 -70 15 -70 10 0 15 10 15 29 0 17 5 33 12 37 7 4
8 3 4 -4 -10 -17 4 -62 20 -62 11 0 14 17 14 70 0 56 -3 70 -15 70 -10 0 -15
-11 -16 -32 l-1 -33 -9 33 c-5 17 -16 32 -24 32 -12 0 -15 -15 -15 -70z"/>
<path d="M1920 920 c0 -56 3 -70 15 -70 12 0 15 14 15 70 0 56 -3 70 -15 70
-12 0 -15 -14 -15 -70z"/>
<path d="M1964 973 c2 -10 8 -42 11 -70 6 -47 10 -53 30 -53 30 0 31 2 39 78
7 57 6 62 -13 62 -17 0 -20 -6 -18 -45 1 -25 -1 -45 -5 -45 -5 0 -8 20 -8 45
0 39 -3 45 -21 45 -15 0 -19 -5 -15 -17z"/>
<path d="M2060 920 l0 -70 30 0 c32 0 43 26 13 32 -15 3 -15 4 1 21 18 17 18
19 1 37 -16 18 -17 20 -2 20 10 0 17 7 17 15 0 10 -10 15 -30 15 l-30 0 0 -70z"/>
<path d="M2134 920 c0 -60 2 -70 17 -70 13 0 19 10 22 38 l4 37 1 -37 c2 -31
6 -38 22 -38 12 0 17 5 14 13 -3 8 -6 38 -7 68 l-2 54 -36 3 -35 3 0 -71z m48
18 c-9 -9 -12 -7 -12 12 0 19 3 21 12 12 9 -9 9 -15 0 -24z"/>
<path d="M2237 983 c-16 -15 -6 -53 18 -69 25 -16 34 -44 15 -44 -5 0 -10 6
-10 14 0 7 -7 19 -16 27 -14 11 -15 9 -12 -22 3 -32 5 -34 38 -34 31 0 35 3
38 27 2 20 -4 31 -22 44 -14 9 -26 24 -26 32 0 13 4 11 16 -6 21 -31 31 -28
26 8 -4 25 -9 30 -31 30 -15 0 -31 -3 -34 -7z"/>
<path d="M2320 920 c0 -65 2 -70 21 -70 20 0 21 4 17 65 -2 36 -2 65 0 65 2 0
10 -7 19 -15 10 -11 14 -30 11 -65 -2 -42 0 -50 15 -50 14 0 17 9 17 55 0 42
3 55 15 55 8 0 15 7 15 15 0 12 -14 15 -65 15 l-65 0 0 -70z"/>
<path d="M2451 927 c-6 -35 -11 -67 -11 -70 0 -14 23 -7 36 11 13 16 13 16 14
0 0 -12 8 -18 21 -18 14 0 19 5 16 13 -3 8 -8 39 -12 70 -7 51 -10 57 -30 57
-20 0 -24 -7 -34 -63z m35 -25 c-11 -10 -15 4 -8 28 l7 25 3 -23 c2 -13 1 -26
-2 -30z"/>
<path d="M2534 974 c3 -9 6 -40 6 -70 0 -41 4 -54 15 -54 11 0 15 11 15 36 0
23 4 33 11 28 6 -3 9 -19 7 -35 -4 -23 -1 -29 14 -29 13 0 18 8 18 29 0 17 -4
33 -10 36 -6 4 -5 13 2 25 17 27 -6 50 -49 50 -28 0 -34 -3 -29 -16z m48 -36
c-9 -9 -12 -7 -12 12 0 19 3 21 12 12 9 -9 9 -15 0 -24z"/>
<path d="M2630 920 c0 -63 2 -70 20 -70 18 0 20 7 20 70 0 63 -2 70 -20 70
-18 0 -20 -7 -20 -70z"/>
<path d="M2686 974 c-9 -23 -7 -97 3 -112 5 -8 21 -12 37 -10 26 3 29 7 34 50
8 65 -2 88 -39 88 -17 0 -31 -6 -35 -16z m44 -54 c0 -27 -4 -50 -10 -50 -5 0
-10 23 -10 50 0 28 5 50 10 50 6 0 10 -22 10 -50z"/>
</g>
</svg>
