<?xml version="1.0" standalone="no"?>
<!DOCTYPE svg PUBLIC "-//W3C//DTD SVG 20010904//EN"
 "http://www.w3.org/TR/2001/REC-SVG-20010904/DTD/svg10.dtd">
<svg version="1.0" xmlns="http://www.w3.org/2000/svg"
 width="900.000000pt" height="900.000000pt" viewBox="0 0 900.000000 900.000000"
 preserveAspectRatio="xMidYMid meet">
<metadata>
Created by potrace 1.11, written by Peter Selinger 2001-2013
</metadata>
<g transform="translate(0.000000,900.000000) scale(0.100000,-0.100000)"
fill="#000000" stroke="none">
<path d="M0 4500 l0 -4500 4500 0 4500 0 0 4500 0 4500 -4500 0 -4500 0 0
-4500z m4905 3010 c155 -12 408 -57 591 -105 494 -130 974 -400 1353 -761 394
-375 677 -827 825 -1317 l34 -112 48 -11 c27 -7 121 -29 209 -49 284 -66 576
-173 700 -257 192 -131 229 -307 96 -451 -90 -97 -249 -183 -499 -267 -187
-63 -606 -170 -667 -170 -13 0 -14 25 -9 188 13 388 -32 689 -161 1078 -207
621 -638 1164 -1210 1523 -122 77 -385 207 -516 255 -315 116 -619 171 -934
170 -267 0 -464 -30 -764 -116 -533 -151 -1074 -559 -1404 -1058 -337 -510
-479 -1210 -362 -1782 167 -816 852 -1414 1796 -1568 181 -29 441 -44 550 -30
193 23 346 68 512 151 453 225 772 636 879 1133 30 140 33 515 5 646 -95 443
-361 806 -710 970 -103 48 -256 89 -363 97 -145 10 -355 -27 -467 -83 -166
-83 -351 -243 -402 -348 -15 -31 -25 -59 -22 -62 3 -3 35 18 70 48 144 118
327 203 497 229 93 14 264 7 345 -15 71 -19 226 -92 293 -138 221 -150 378
-394 454 -708 32 -131 4 -504 -49 -660 -50 -149 -169 -342 -298 -487 -163
-182 -450 -329 -754 -385 -150 -28 -401 -30 -538 -4 -327 60 -618 220 -875
482 -407 414 -568 963 -459 1554 125 672 567 1242 1205 1551 161 78 300 119
542 161 101 17 171 22 324 22 201 1 290 -9 490 -56 731 -171 1354 -705 1629
-1395 70 -175 115 -377 160 -718 33 -246 31 -636 -4 -837 -18 -105 -74 -290
-132 -438 -252 -641 -753 -1191 -1393 -1528 -173 -90 -293 -138 -462 -182
-449 -116 -865 -146 -1191 -84 -445 83 -722 176 -1032 345 -285 154 -517 330
-755 568 -393 394 -655 845 -785 1346 -26 103 -37 131 -52 133 -78 14 -273 60
-392 94 -303 84 -508 182 -608 291 -59 64 -83 116 -83 180 0 235 329 418 1054
586 97 23 182 41 189 41 10 0 12 -60 13 -272 1 -518 69 -911 219 -1273 93
-225 234 -466 395 -675 97 -126 389 -416 518 -514 369 -280 762 -458 1205
-546 214 -42 280 -49 464 -50 234 0 481 35 739 105 164 45 228 70 390 155 830
432 1329 1120 1438 1978 54 427 -33 892 -246 1317 -95 189 -198 333 -356 496
-334 347 -757 553 -1249 609 -131 15 -310 1 -514 -40 -167 -34 -230 -55 -378
-130 -284 -142 -530 -350 -707 -595 -78 -109 -192 -336 -234 -465 -52 -163
-71 -278 -77 -476 -4 -146 -2 -202 12 -285 54 -324 228 -616 462 -776 273
-187 447 -245 738 -247 170 -1 250 16 373 78 71 36 157 94 150 102 -3 2 -40
-5 -84 -17 -103 -26 -310 -36 -424 -20 -103 15 -261 66 -361 116 -192 97 -396
320 -491 540 -107 244 -117 549 -27 819 107 323 340 599 656 781 174 99 360
153 601 175 309 28 693 -75 977 -260 350 -230 592 -567 696 -973 52 -205 64
-301 64 -537 -1 -366 -47 -588 -180 -865 -250 -520 -755 -917 -1340 -1053
-210 -49 -524 -66 -753 -41 -449 48 -901 224 -1252 487 -240 179 -422 372
-580 614 -245 374 -370 794 -370 1243 1 980 522 1889 1395 2434 134 84 399
213 510 249 221 72 547 135 776 151 180 12 191 12 334 1z"/>
</g>
</svg>
